<svg xmlns="http://www.w3.org/2000/svg" enable-background="new 0 0 100 100" viewBox="0 0 100 100" id="film-clapperboard"><path d="M79.356,50.649c-11.692,0-26.808,0-38.513,0c0,0-10.459,0-10.459,0l6.144-6.144c8.657-8.655,18.589-18.591,27.232-27.233
	c0,0,1.3-1.3,1.3-1.3c0.586-0.585,0.586-1.536,0-2.121l-7.412-7.412c-0.586-0.586-1.535-0.586-2.121,0l-8.712,8.711
	c-7.532,7.538-17.84,17.836-25.373,25.373c0,0-1.86,1.86-1.86,1.86c-0.586,0.585-0.586,1.536,0,2.121
	c0.055,0.032,7.398,7.434,7.46,7.444c-0.009,0.066-0.02,0.132-0.02,0.2v10.482V92.5c0,0.829,0.671,1.5,1.5,1.5h50.833
	c0.829,0,1.5-0.671,1.5-1.5V62.631V52.149C80.856,51.32,80.185,50.649,79.356,50.649z M77.347,53.649h0.51v7.482h-7.992
	L77.347,53.649z M65.622,61.131h-7.718l7.482-7.482h7.718L65.622,61.131z M53.662,61.131h-7.719l7.482-7.482h7.719L53.662,61.131z
	 M41.701,61.131h-7.718l7.482-7.482h7.718L41.701,61.131z M30.023,60.848v-7.199h7.199L30.023,60.848z M56.588,9.621l5.09,5.09
	H51.498L56.588,9.621z M48.498,17.711h10.582l-5.458,5.458H43.04L48.498,17.711z M40.041,26.169h10.581l-5.458,5.458H34.583
	L40.041,26.169z M31.583,34.626h10.582l-5.458,5.458H26.125L31.583,34.626z M22.765,43.444l0.36-0.36h10.582l-5.651,5.651
	L22.765,43.444z M30.023,91V64.131h0.338c0,0,36.948-0.001,47.495,0c0,0,0,26.869,0,26.869H30.023z"></path></svg>