<svg xmlns="http://www.w3.org/2000/svg" width="1024" height="1024" viewBox="-44.795 -30.214 1024 1024" id="team"><path d="M562.333 356.006a134.676 134.676 0 0 1-.312 8.357c-.095 1.375-.24 2.746-.386 4.117-.494 4.649.6-3.832-.121.766-.903 5.765-2.372 11.43-4.18 16.973-.412 1.265-.871 2.514-1.329 3.762-.272.741-1.983 4.927-.211.736-1.027 2.429-2.186 4.8-3.384 7.147-2.583 5.056-5.644 9.857-8.971 14.453-2.611 3.607 2.329-2.883-.447.594-.813 1.019-1.663 2.009-2.512 2.999-1.697 1.978-3.497 3.865-5.329 5.718-1.832 1.854-3.761 3.61-5.719 5.33-.979.86-1.989 1.686-2.998 2.512-1.509 1.197-1.357 1.087.455-.331-.696.523-1.398 1.038-2.106 1.544-4.246 3.074-8.759 5.766-13.396 8.204-2.334 1.228-4.731 2.328-7.147 3.384 4.162-1.82.01-.073-.735.211-1.659.632-3.344 1.192-5.03 1.743-5.125 1.671-10.395 2.866-15.705 3.766-4.588.777 3.877-.431-.766.121-1.368.163-2.742.274-4.116.385-3.246.264-6.506.324-9.761.303-2.781-.017-5.559-.19-8.331-.415a108.595 108.595 0 0 1-4.102-.436c4.659.554.077-.047-.745-.187-5.744-.973-11.381-2.508-16.892-4.38-1.258-.427-2.5-.9-3.741-1.373-4.223-1.608 3.424 1.538-.707-.268-2.414-1.056-4.769-2.241-7.1-3.467-5.023-2.642-9.785-5.757-14.338-9.136 3.591 2.666.059.006-.555-.495a112.43 112.43 0 0 1-2.968-2.546c-1.958-1.72-3.824-3.542-5.655-5.396-1.833-1.854-3.566-3.804-5.263-5.781-.849-.99-1.663-2.009-2.477-3.028 2.91 3.644-.644-.979-1.153-1.7-3.025-4.285-5.665-8.832-8.049-13.5-.599-1.173-1.156-2.368-1.713-3.562-.338-.725-2.042-4.876-.325-.677-1.174-2.874-2.174-5.815-3.1-8.777-1.611-5.153-2.743-10.446-3.579-15.777.728 4.641.033.042-.055-.786a109.798 109.798 0 0 1-.335-4.131c-.223-3.254-.243-6.519-.182-9.779.052-2.774.258-5.542.517-8.303.077-.822.727-5.446.055-.786.194-1.347.438-2.685.682-4.023 1.043-5.722 2.645-11.331 4.581-16.811.442-1.251.93-2.486 1.417-3.72-1.662 4.211-.007.059.325-.677 1.083-2.399 2.296-4.738 3.549-7.052 1.248-2.306 2.619-4.543 4.027-6.753.703-1.103 1.445-2.18 2.186-3.256.497-.721 4.024-5.384 1.153-1.7 3.206-4.114 6.77-7.938 10.519-11.557 1.875-1.811 3.845-3.521 5.843-5.194.602-.504 4.122-3.208.555-.496 1.386-1.054 2.815-2.051 4.25-3.039 4.323-2.977 8.904-5.563 13.603-7.893a110.022 110.022 0 0 1 3.586-1.671c4.109-1.856-3.496 1.391.707-.268 2.891-1.142 5.849-2.106 8.825-2.997 2.577-.771 5.193-1.399 7.818-1.979 1.323-.292 2.657-.535 3.99-.778.811-.148 5.406-.799.745-.187 5.975-.785 12.017-.969 18.034-.781 2.767.086 5.525.327 8.275.619 4.649.494-3.831-.6.766.121 1.342.21 2.675.47 4.007.73 5.7 1.112 11.281 2.78 16.729 4.779.741.272 4.927 1.984.735.211 1.216.514 2.413 1.072 3.609 1.63 2.384 1.111 4.706 2.351 7.004 3.63 2.289 1.275 4.509 2.671 6.7 4.105 1.094.716 2.162 1.47 3.229 2.224.639.452 4.17 3.157.632.4 4.113 3.206 7.938 6.77 11.557 10.519 1.812 1.875 3.521 3.845 5.195 5.843.504.602 3.207 4.122.495.555.79 1.04 1.544 2.107 2.297 3.174 3.025 4.285 5.665 8.831 8.049 13.499.6 1.174 1.157 2.368 1.714 3.563.338.725 2.041 4.876.324.677 1.006 2.461 1.877 4.976 2.701 7.503 1.672 5.125 2.866 10.394 3.767 15.705.777 4.588-.431-3.877.121.766.162 1.369.274 2.743.386 4.116.226 2.778.294 5.568.312 8.355.06 9.539 7.915 17.5 17.5 17.5 9.495 0 17.56-7.96 17.5-17.5-.306-49.085-29.183-95.616-74.216-115.957-47.079-21.265-101.833-12.511-140.186 21.989-36.89 33.185-50.412 87.98-34.527 134.745 7.698 22.661 21.761 43.292 40.493 58.248 20.298 16.206 43.74 25.485 69.527 28.225 35.568 3.78 71.396-9.614 97.706-33.282 26.326-23.682 40.982-58.787 41.202-93.968.06-9.54-8.005-17.5-17.5-17.5-9.584 0-17.439 7.962-17.499 17.5z"></path><path d="M595.88 479.412a161.82 161.82 0 0 1 7.218 4.881c.465.333 4.306 3.284 1.082.763 1.141.893 2.253 1.821 3.365 2.75 4.816 4.021 9.284 8.446 13.5 13.088 1.948 2.145 3.792 4.381 5.599 6.644-2.55-3.194.42.62.76 1.085a134.86 134.86 0 0 1 2.494 3.569c3.563 5.217 6.672 10.73 9.473 16.388a135.689 135.689 0 0 1 1.863 3.979c2.031 4.463-1.314-3.324.524 1.232 1.105 2.739 2.075 5.53 2.998 8.336 2.026 6.157 3.502 12.484 4.622 18.864.104.596.81 5.602.257 1.349.197 1.515.343 3.035.488 4.556.295 3.071.433 6.155.52 9.238.045 1.593.035 3.187.035 4.779v89.221c0 1.132-.036 1.692-.091 2.818-.227 4.656.73-3.726-.084.806-.239 1.332-.605 2.637-.971 3.938-.217.771-1.837 4.982-.08.829-1.03 2.435-2.396 4.711-3.854 6.906-2.448 3.686 2.385-2.762-.491.591-1.138 1.326-2.414 2.526-3.702 3.702-3.264 2.978 3.017-2.068-.591.492-1.074.762-2.216 1.423-3.354 2.082-1.146.663-2.351 1.218-3.552 1.771 4.047-1.863-.019-.176-.829.08-1.291.407-2.616.689-3.938.971-4.505.96 3.841-.293-.805.084-.963.078-1.944.091-2.91.091H313.545c-1.236 0-1.577-.031-2.808-.091-4.656-.227 3.726.73-.805-.084-1.332-.239-2.637-.605-3.938-.971a42.277 42.277 0 0 1-2.542-.846c2.113.952 2.282 1.022.508.211-2.396-1.104-4.626-2.536-6.772-4.06 3.567 2.532.146-.036-.487-.614-.968-.883-1.853-1.853-2.735-2.819-2.978-3.264 2.068 3.017-.492-.591-.762-1.074-1.423-2.216-2.082-3.354-.664-1.146-1.218-2.351-1.771-3.552 1.933 4.198-.183-1.194-.445-2.126-.367-1.31-.608-2.649-.848-3.985.812 4.519.134.045.09-.857-.028-.584-.023-1.176-.023-1.763v-85.786c0-4.695.023-9.375.314-14.066.095-1.533.242-3.063.389-4.591.057-.594.729-5.649.127-1.4.423-2.991.997-5.96 1.619-8.915 1.331-6.316 3.218-12.506 5.438-18.563.507-1.385 1.061-2.752 1.613-4.12-1.55 3.835.346-.679.587-1.208 1.215-2.665 2.559-5.27 3.944-7.85 2.986-5.562 6.446-10.857 10.174-15.947 2.866-3.914-2.21 2.735.817-1.05.906-1.133 1.848-2.236 2.79-3.34 1.883-2.206 3.87-4.32 5.888-6.4 2.019-2.081 4.136-4.065 6.283-6.013a134.643 134.643 0 0 1 3.283-2.854c.554-.472 5.429-4.304 2.131-1.787 2.697-2.059 5.501-3.971 8.344-5.822 7.978-5.195 11.275-15.414 6.278-23.943-4.644-7.928-15.941-11.489-23.943-6.278-43.778 28.506-71.077 77.149-71.077 129.616v77.392c0 14.648.357 28.094 7.149 41.713 9.83 19.709 31.894 31.716 53.505 31.716H625.325c25.422 0 47.565-16.048 56.631-39.51 4.556-11.79 3.723-24.559 3.723-36.947v-74.59c0-27.098-7.36-53.905-20.911-77.339-12.405-21.453-30.394-39.431-51.221-52.72-8.05-5.136-19.267-1.707-23.943 6.278-4.964 8.471-1.75 18.822 6.276 23.943zm241.561-26.096a86.755 86.755 0 0 1-.472 8.28c.488-4.645-.043-.134-.198.718-.242 1.323-.558 2.631-.874 3.938-.625 2.587-1.467 5.117-2.377 7.615-1.538 4.224 1.573-3.401-.266.684-.718 1.594-1.537 3.14-2.37 4.675-1.242 2.294-2.671 4.482-4.154 6.626-2.521 3.643 2.361-2.852-.413.596-.813 1.012-1.682 1.979-2.549 2.944-1.734 1.933-3.622 3.721-5.553 5.454-.967.867-1.979 1.682-2.991 2.496 3.632-2.922-.983.559-1.737 1.061-2.176 1.448-4.466 2.716-6.785 3.918-1.166.604-2.364 1.145-3.562 1.684 4.135-1.862.047-.104-.728.179-2.507.913-5.085 1.613-7.676 2.239-1.311.316-2.639.559-3.964.801-1.988.313-1.784.297.611-.044-.908.104-1.819.19-2.731.261-2.771.238-5.559.237-8.337.158-1.38-.04-2.756-.158-4.13-.276-4.64-.398 3.813.646-.75-.099-2.652-.432-5.263-1.088-7.847-1.816-1.279-.36-2.537-.792-3.793-1.224a70.92 70.92 0 0 1-2.477-.928c2.146.932 2.329 1.002.549.209-2.388-1.076-4.684-2.347-6.938-3.676-1.123-.663-2.209-1.386-3.294-2.107-.66-.439-4.205-3.093-.653-.339-4.45-3.45-8.384-7.528-11.907-11.907 2.806 3.487.122.013-.339-.653-.742-1.071-1.425-2.183-2.107-3.293-1.372-2.231-2.558-4.571-3.676-6.938-1.915-4.051 1.35 3.511-.267-.684-.478-1.237-.885-2.5-1.292-3.762-.961-2.98-1.64-6.043-2.201-9.121-.831-4.549.388 3.881-.099-.75-.145-1.373-.21-2.752-.276-4.13-.132-2.779-.027-5.563.158-8.336.057-.837.669-5.447-.002-.781.192-1.339.461-2.665.729-3.99.617-3.054 1.52-6.043 2.53-8.988.262-.763 1.973-4.915.18-.728.517-1.207 1.101-2.385 1.683-3.561 1.16-2.342 2.511-4.585 3.919-6.785.702-1.097 1.462-2.154 2.223-3.21-2.602 3.616-.045.099.484-.536 1.941-2.326 4.088-4.472 6.304-6.534.951-.885 1.948-1.718 2.945-2.549 1.502-1.203 1.348-1.087-.461.347a70.092 70.092 0 0 1 2.126-1.5c2.507-1.735 5.165-3.239 7.869-4.641 1.166-.604 2.364-1.144 3.562-1.683-4.306 1.939 1.108-.31 1.982-.61 3.382-1.161 6.873-1.968 10.386-2.61 4.549-.831-3.881.389.75-.098 1.834-.193 3.679-.263 5.521-.316 3.232-.092 6.466.121 9.678.459-4.645-.488-.134.042.719.198 1.762.321 3.5.759 5.231 1.212 1.716.449 3.4 1.01 5.078 1.585a70.87 70.87 0 0 1 2.476.928c-2.146-.932-2.329-1.001-.549-.208 2.785 1.254 5.449 2.761 8.05 4.359 1.109.682 2.182 1.424 3.252 2.166 1.553 1.14 1.413 1.006-.417-.402.68.537 1.35 1.085 2.01 1.646 2.326 1.942 4.472 4.088 6.534 6.304 1.18 1.268 2.278 2.608 3.363 3.957-2.922-3.632.559.983 1.061 1.737 1.691 2.541 3.147 5.229 4.501 7.96.363.734 2.063 4.841.353.638.666 1.637 1.224 3.314 1.767 4.995.961 2.98 1.64 6.043 2.201 9.121.313 1.988.297 1.784-.044-.612.104.909.19 1.819.261 2.732.158 1.842.193 3.695.21 5.545.091 9.538 7.892 17.5 17.5 17.5 9.471 0 17.591-7.96 17.5-17.5-.243-25.491-11.091-50.361-30.459-67.128-20.932-18.121-47.398-24.644-74.512-20.748-24.937 3.583-47.019 20.051-60.378 40.927-13.854 21.647-16.882 49.99-9.038 74.306 6.538 20.267 20.244 37.227 38.101 48.653 18.71 11.973 40.966 14.972 62.583 11.865 42.457-6.102 73.305-46.115 73.703-87.875.091-9.54-8.029-17.5-17.5-17.5-9.608 0-17.409 7.962-17.5 17.5z"></path><path d="M862.31 538.953a133.24 133.24 0 0 1 3.604 2.397c.492.339 4.291 3.268 1.063.72 2.257 1.782 4.382 3.726 6.455 5.717s4 4.131 5.87 6.313c.392.458 3.294 4.26.829.976 1.153 1.537 2.219 3.139 3.271 4.747 1.584 2.424 2.986 4.959 4.324 7.524.672 1.288 1.28 2.609 1.887 3.93-1.737-3.776.232.639.455 1.222 1.051 2.752 1.893 5.578 2.661 8.42.388 1.436.703 2.889 1.018 4.341.167.771 1.151 7.112.589 2.756 1.639 12.689.64 26.045.64 38.795V657.908c0 .921-.045 1.839-.135 2.755.349-2.406.327-2.629-.063-.668-.194.868-1.794 4.906.006.789-.522 1.194-1.21 2.308-1.894 3.414-2.269 3.673 2.427-2.668-.473.512-.59.647-3.892 3.322-.355.654-1.039.783-2.18 1.417-3.314 2.046-3.806 2.111 3.491-1.145-.678.221-.888.291-5.21.982-.614.416-.835.103-1.951.135-2.789.135H729.016c-9.54 0-17.5 7.96-17.5 17.5s7.96 17.5 17.5 17.5h146.78c12.333 0 24.551-.518 34.965-8.376 11.79-8.896 19.216-21.956 19.216-36.985V601.645c0-22.019-5.516-43.521-17.949-61.887-8.475-12.516-19.345-22.867-32.05-31.023-8.036-5.159-19.276-1.689-23.943 6.277-4.976 8.488-1.736 18.798 6.275 23.941zm-652.011-85.637a86.755 86.755 0 0 1-.472 8.28c.489-4.645-.042-.134-.198.718-.241 1.323-.558 2.631-.873 3.938-.625 2.587-1.467 5.117-2.377 7.615-1.539 4.224 1.573-3.401-.267.684-.718 1.594-1.537 3.14-2.369 4.675-1.243 2.294-2.671 4.482-4.155 6.626-2.521 3.643 2.362-2.852-.412.596-.814 1.012-1.682 1.979-2.549 2.944-1.734 1.933-3.622 3.721-5.553 5.454-.967.867-1.979 1.682-2.991 2.496 3.632-2.922-.984.559-1.738 1.061-2.176 1.448-4.466 2.716-6.785 3.918-1.166.604-2.364 1.145-3.561 1.684 4.134-1.862.047-.104-.729.179-2.506.913-5.084 1.613-7.675 2.239-1.311.316-2.638.559-3.964.801-1.988.313-1.784.297.612-.044-.909.104-1.82.19-2.732.261-2.772.238-5.559.237-8.336.158-1.38-.04-2.756-.158-4.131-.276-4.64-.398 3.813.646-.75-.099-2.652-.432-5.262-1.088-7.846-1.816-1.279-.36-2.537-.792-3.793-1.224a70.17 70.17 0 0 1-2.477-.928c2.146.932 2.33 1.002.549.209-2.389-1.076-4.684-2.347-6.938-3.676-1.123-.663-2.209-1.386-3.293-2.107-.66-.439-4.206-3.093-.654-.339-4.45-3.45-8.383-7.528-11.907-11.907 2.806 3.487.123.013-.338-.653-.742-1.071-1.425-2.183-2.107-3.293-1.372-2.231-2.558-4.571-3.676-6.938-1.915-4.051 1.35 3.511-.267-.684-.477-1.237-.884-2.5-1.291-3.762-.961-2.98-1.64-6.043-2.202-9.121-.831-4.549.389 3.881-.099-.75-.144-1.373-.21-2.752-.275-4.13-.133-2.779-.027-5.563.158-8.336.056-.837.668-5.447-.002-.781.192-1.339.46-2.665.729-3.99.617-3.054 1.52-6.043 2.53-8.988.262-.763 1.973-4.915.179-.728.517-1.207 1.101-2.385 1.683-3.561 1.161-2.342 2.511-4.585 3.918-6.785.702-1.097 1.463-2.154 2.223-3.21-2.601 3.616-.045.099.485-.536 1.941-2.326 4.088-4.472 6.304-6.534.951-.885 1.948-1.718 2.945-2.549 1.502-1.203 1.348-1.087-.461.347a71.37 71.37 0 0 1 2.126-1.5c2.507-1.735 5.165-3.239 7.869-4.641 1.166-.604 2.364-1.144 3.561-1.683-4.306 1.939 1.109-.31 1.982-.61 3.381-1.161 6.873-1.968 10.386-2.61 4.548-.831-3.881.389.75-.098 1.834-.193 3.679-.263 5.521-.316 3.232-.092 6.465.121 9.678.459-4.645-.488-.134.042.718.198 1.762.321 3.5.759 5.232 1.212 1.716.449 3.401 1.01 5.078 1.585a70.17 70.17 0 0 1 2.477.928c-2.146-.932-2.33-1.001-.549-.208 2.786 1.254 5.45 2.761 8.049 4.359 1.11.682 2.182 1.424 3.253 2.166 1.552 1.14 1.413 1.006-.417-.402a71.98 71.98 0 0 1 2.009 1.646c2.326 1.942 4.473 4.088 6.535 6.304 1.18 1.268 2.278 2.608 3.364 3.957-2.922-3.632.559.983 1.061 1.737 1.691 2.541 3.147 5.229 4.5 7.96.364.734 2.062 4.841.353.638.666 1.637 1.224 3.314 1.766 4.995.961 2.98 1.64 6.043 2.202 9.121.312 1.988.296 1.784-.045-.612.104.909.191 1.819.261 2.732.155 1.842.19 3.695.208 5.545.091 9.538 7.892 17.5 17.5 17.5 9.471 0 17.591-7.96 17.5-17.5-.243-25.491-11.091-50.361-30.458-67.128-20.932-18.121-47.399-24.644-74.513-20.748-24.936 3.583-47.018 20.051-60.377 40.927-13.853 21.647-16.881 49.99-9.037 74.306 6.538 20.267 20.243 37.227 38.1 48.653 18.71 11.973 40.966 14.972 62.583 11.865 42.457-6.102 73.305-46.115 73.703-87.875.091-9.54-8.029-17.5-17.5-17.5-9.61 0-17.41 7.962-17.501 17.5zm-.24 214.863H55.044c-1.461 0-5.746-.649-1.454.094-1.313-.227-2.583-.643-3.845-1.057 4.062 1.331.373.077-.56-.44-.82-.455-4.025-3.075-.662-.284-.777-.645-4.373-4.887-1.609-1.226-.784-1.039-1.417-2.18-2.046-3.314-2.111-3.805 1.145 3.491-.221-.677-.291-.888-.982-5.211-.416-.614-.096-.781-.135-1.995-.135-2.777v-59.18c0-3.093.185-6.172.478-9.249.481-5.052-.612 3.607.21-1.365.245-1.484.566-2.954.887-4.424.636-2.909 1.493-5.767 2.42-8.594.46-1.403.991-2.781 1.521-4.159-1.501 3.9.875-1.831 1.21-2.524 1.271-2.626 2.737-5.153 4.261-7.639.76-1.238 1.58-2.439 2.4-3.639.326-.478 3.25-4.326.729-1.11 3.874-4.941 8.379-9.361 13.197-13.373 3.709-3.09-2.845 2.053 1.061-.79 1.174-.854 2.39-1.651 3.604-2.447 7.962-5.217 11.285-15.396 6.278-23.943-4.634-7.91-15.956-11.512-23.943-6.277-23.115 15.146-40.099 38.159-46.489 65.192-3.535 14.951-2.826 30.337-2.826 45.564v37.782c0 25.104 20.844 45.471 45.808 45.471h155.154c9.54 0 17.5-7.96 17.5-17.5s-7.958-17.501-17.497-17.501z"></path></svg>