<svg xmlns="http://www.w3.org/2000/svg" fill-rule="evenodd" stroke-linejoin="round" stroke-miterlimit="2" clip-rule="evenodd" viewBox="0 0 48 48" id="fuel-station"><path d="M38 7a4.996 4.996 0 0 0-1.465-3.536A4.996 4.996 0 0 0 33 2H15a4.996 4.996 0 0 0-3.535 1.465A4.996 4.996 0 0 0 10 7V37a1 1 0 0 0 1 1h26a1 1 0 0 0 1-1V7Zm-2 0v29H12V7a3 3 0 0 1 3-3h18a2.999 2.999 0 0 1 3 3Z"></path><path d="M42 39a3 3 0 0 0-3-3H9a2.999 2.999 0 0 0-3 3v2a1 1 0 0 0 1 1h34a1 1 0 0 0 1-1v-2Zm-2 0v1H8v-1a.997.997 0 0 1 1-1h30a.997.997 0 0 1 1 1Z"></path><path d="M46 43a3 3 0 0 0-3-3H5a3 3 0 0 0-3 3v2a1 1 0 0 0 1 1h42a1 1 0 0 0 1-1v-2Zm-2 0v1H4v-1a1 1 0 0 1 1-1h38a1 1 0 0 1 1 1ZM33 10a3 3 0 0 0-3-3H18a3 3 0 0 0-3 3v5a3 3 0 0 0 3 3h12a3 3 0 0 0 3-3v-5Zm-2 0v5a1 1 0 0 1-1 1H18a1 1 0 0 1-1-1v-5a1 1 0 0 1 1-1h12a1 1 0 0 1 1 1ZM37 31h2a3 3 0 0 0 3-3V11.828a1 1 0 0 1 .293-.707l3.414-3.414a1 1 0 0 0-1.414-1.414l-3.414 3.414A3 3 0 0 0 40 11.828V28a1 1 0 0 1-1 1h-2a1 1 0 0 0 0 2Z"></path><path d="m42.535 8.763.811 2.974A1 1 0 0 1 42.381 13H41a1 1 0 0 0 0 2h1.381a3.001 3.001 0 0 0 2.895-3.789l-.811-2.974a1 1 0 0 0-1.93.526zM11 8H9a3 3 0 0 0-3 3v10a3 3 0 0 0 3 3h2a1 1 0 0 0 0-2H9a1 1 0 0 1-1-1V11a1 1 0 0 1 1-1h2a1 1 0 0 0 0-2z"></path></svg>